<svg xmlns="http://www.w3.org/2000/svg" xmlns:xlink="http://www.w3.org/1999/xlink" width="400" zoomAndPan="magnify" viewBox="0 0 300 149.999998" height="200" preserveAspectRatio="xMidYMid meet" version="1.0"><defs><clipPath id="60312a7ac3"><path d="M 8.0625 9.609375 L 292 9.609375 L 292 140.316406 L 8.0625 140.316406 Z M 8.0625 9.609375 " clip-rule="nonzero"/></clipPath></defs><g clip-path="url(#60312a7ac3)"><path fill="#e5e2df" d="M 287.230469 113.898438 L 252.84375 79.535156 C 250.003906 76.609375 246.007812 74.933594 241.917969 74.933594 L 232.183594 74.933594 C 238.988281 68.007812 243.167969 58.558594 243.167969 48.132812 C 243.167969 27.03125 225.988281 9.835938 204.84375 9.835938 C 183.699219 9.835938 167.21875 26.394531 166.578125 46.941406 L 148.910156 29.289062 C 146.015625 26.394531 142.167969 24.804688 138.078125 24.804688 C 133.992188 24.804688 130.148438 26.394531 127.246094 29.289062 L 86.695312 69.808594 L 63.105469 69.808594 C 59.019531 69.808594 55.171875 71.394531 52.273438 74.292969 L 12.667969 113.898438 C 8.273438 118.289062 6.960938 124.84375 9.339844 130.609375 C 11.722656 136.339844 17.277344 140.058594 23.5 140.058594 L 153.914062 139.90625 L 169.082031 139.90625 L 169.082031 140.058594 L 207.40625 140.058594 L 207.40625 139.90625 L 220.773438 139.90625 C 221.414062 140 222.054688 140.058594 222.726562 140.058594 L 276.367188 140.058594 C 282.5625 140.058594 288.117188 136.371094 290.527344 130.609375 C 292.90625 124.8125 291.59375 118.257812 287.167969 113.929688 Z M 287.230469 113.898438 " fill-opacity="1" fill-rule="nonzero"/></g><path fill="#a67233" d="M 138.109375 47.367188 L 102.714844 94.078125 L 125.691406 94.078125 L 118.03125 124.722656 L 149.949219 124.722656 L 149.949219 66.027344 Z M 138.109375 47.367188 " fill-opacity="1" fill-rule="nonzero"/><path fill="#401801" d="M 280 121.125 L 245.519531 86.667969 C 244.574219 85.695312 243.261719 85.175781 241.917969 85.175781 L 190.382812 85.175781 L 141.710938 36.546875 C 139.726562 34.566406 136.492188 34.566406 134.476562 36.546875 L 90.902344 80.082031 L 63.074219 80.082031 C 61.734375 80.082031 60.421875 80.632812 59.476562 81.578125 L 19.867188 121.152344 C 18.402344 122.617188 17.976562 124.8125 18.773438 126.734375 C 19.566406 128.625 21.425781 129.875 23.5 129.875 L 153.914062 129.722656 C 155.257812 129.722656 156.570312 129.171875 157.515625 128.230469 L 188.246094 97.523438 L 219.125 128.378906 C 220.070312 129.355469 221.382812 129.875 222.726562 129.875 L 276.367188 129.875 C 278.445312 129.875 280.304688 128.625 281.097656 126.734375 C 281.890625 124.8125 281.464844 122.617188 279.96875 121.1875 Z M 65.210938 90.269531 L 74.734375 90.269531 L 74.734375 110.664062 L 96.671875 88.746094 L 138.109375 47.339844 L 128.253906 81.304688 L 146.226562 81.304688 L 137.957031 119.480469 L 35.855469 119.601562 Z M 65.210938 90.269531 " fill-opacity="1" fill-rule="nonzero"/><path fill="#a67233" d="M 232.976562 48.160156 C 232.976562 49.082031 232.929688 50 232.84375 50.914062 C 232.75 51.828125 232.617188 52.738281 232.4375 53.640625 C 232.257812 54.542969 232.035156 55.433594 231.765625 56.3125 C 231.5 57.195312 231.191406 58.058594 230.835938 58.90625 C 230.484375 59.757812 230.09375 60.589844 229.65625 61.398438 C 229.226562 62.210938 228.753906 63 228.242188 63.765625 C 227.726562 64.527344 227.179688 65.265625 226.597656 65.976562 C 226.015625 66.6875 225.398438 67.367188 224.746094 68.019531 C 224.097656 68.667969 223.414062 69.285156 222.703125 69.871094 C 221.992188 70.453125 221.253906 71 220.484375 71.511719 C 219.722656 72.019531 218.933594 72.496094 218.121094 72.925781 C 217.308594 73.363281 216.476562 73.753906 215.628906 74.105469 C 214.777344 74.457031 213.914062 74.769531 213.03125 75.03125 C 212.148438 75.300781 211.257812 75.523438 210.355469 75.703125 C 209.453125 75.882812 208.546875 76.015625 207.628906 76.109375 C 206.714844 76.195312 205.796875 76.242188 204.875 76.242188 C 203.953125 76.242188 203.035156 76.195312 202.117188 76.109375 C 201.203125 76.015625 200.292969 75.882812 199.390625 75.703125 C 198.488281 75.523438 197.597656 75.300781 196.714844 75.03125 C 195.835938 74.769531 194.96875 74.457031 194.121094 74.105469 C 193.269531 73.753906 192.4375 73.363281 191.628906 72.925781 C 190.816406 72.496094 190.027344 72.019531 189.261719 71.511719 C 188.492188 71 187.757812 70.453125 187.042969 69.871094 C 186.332031 69.285156 185.652344 68.667969 185.003906 68.019531 C 184.351562 67.367188 183.734375 66.6875 183.152344 65.976562 C 182.566406 65.265625 182.019531 64.527344 181.507812 63.765625 C 180.996094 63 180.523438 62.210938 180.089844 61.398438 C 179.65625 60.589844 179.261719 59.757812 178.910156 58.90625 C 178.558594 58.058594 178.25 57.195312 177.980469 56.3125 C 177.714844 55.433594 177.488281 54.542969 177.308594 53.640625 C 177.132812 52.738281 176.996094 51.828125 176.90625 50.914062 C 176.816406 50 176.773438 49.082031 176.773438 48.160156 C 176.773438 47.242188 176.816406 46.324219 176.90625 45.40625 C 176.996094 44.492188 177.132812 43.585938 177.308594 42.683594 C 177.488281 41.78125 177.714844 40.890625 177.980469 40.011719 C 178.25 39.128906 178.558594 38.265625 178.910156 37.414062 C 179.261719 36.566406 179.65625 35.734375 180.089844 34.921875 C 180.523438 34.113281 180.996094 33.324219 181.507812 32.5625 C 182.019531 31.796875 182.566406 31.058594 183.152344 30.347656 C 183.734375 29.636719 184.351562 28.953125 185.003906 28.304688 C 185.652344 27.652344 186.332031 27.035156 187.042969 26.453125 C 187.757812 25.871094 188.492188 25.324219 189.261719 24.8125 C 190.027344 24.300781 190.816406 23.832031 191.628906 23.394531 C 192.4375 22.960938 193.269531 22.570312 194.121094 22.21875 C 194.96875 21.867188 195.835938 21.558594 196.714844 21.289062 C 197.597656 21.023438 198.488281 20.800781 199.390625 20.621094 C 200.292969 20.441406 201.203125 20.304688 202.117188 20.214844 C 203.035156 20.125 203.953125 20.082031 204.875 20.082031 C 205.796875 20.082031 206.714844 20.125 207.628906 20.214844 C 208.546875 20.304688 209.453125 20.441406 210.355469 20.621094 C 211.257812 20.800781 212.148438 21.023438 213.03125 21.289062 C 213.914062 21.558594 214.777344 21.867188 215.628906 22.21875 C 216.476562 22.570312 217.308594 22.960938 218.121094 23.394531 C 218.933594 23.832031 219.722656 24.300781 220.484375 24.8125 C 221.253906 25.324219 221.992188 25.871094 222.703125 26.453125 C 223.414062 27.035156 224.097656 27.652344 224.746094 28.304688 C 225.398438 28.953125 226.015625 29.636719 226.597656 30.347656 C 227.179688 31.058594 227.730469 31.796875 228.242188 32.5625 C 228.753906 33.324219 229.226562 34.113281 229.65625 34.921875 C 230.09375 35.734375 230.484375 36.566406 230.835938 37.414062 C 231.191406 38.265625 231.5 39.128906 231.765625 40.011719 C 232.035156 40.890625 232.257812 41.78125 232.4375 42.683594 C 232.617188 43.585938 232.75 44.492188 232.84375 45.40625 C 232.929688 46.324219 232.976562 47.242188 232.976562 48.160156 Z M 232.976562 48.160156 " fill-opacity="1" fill-rule="nonzero"/><path fill="#401801" d="M 188.273438 111.949219 C 183.332031 111.949219 179.335938 115.941406 179.335938 120.878906 L 179.335938 129.816406 L 197.214844 129.816406 L 197.214844 120.878906 C 197.214844 115.941406 193.214844 111.949219 188.273438 111.949219 Z M 188.273438 111.949219 " fill-opacity="1" fill-rule="nonzero"/></svg>