<svg xmlns="http://www.w3.org/2000/svg" xmlns:xlink="http://www.w3.org/1999/xlink" width="500" zoomAndPan="magnify" viewBox="0 0 375 374.999991" height="500" preserveAspectRatio="xMidYMid meet" version="1.0"><defs><clipPath id="d817ea38e8"><path d="M 5 103.359375 L 370 103.359375 L 370 271.359375 L 5 271.359375 Z M 5 103.359375 " clip-rule="nonzero"/></clipPath></defs><g clip-path="url(#d817ea38e8)"><path fill="#e5e2df" d="M 363.828125 237.40625 L 319.628906 193.238281 C 315.980469 189.476562 310.84375 187.320312 305.585938 187.320312 L 293.074219 187.320312 C 301.820312 178.421875 307.195312 166.273438 307.195312 152.871094 C 307.195312 125.75 285.113281 103.648438 257.933594 103.648438 C 230.753906 103.648438 209.574219 124.929688 208.75 151.34375 L 186.039062 128.652344 C 182.316406 124.929688 177.375 122.890625 172.117188 122.890625 C 166.863281 122.890625 161.921875 124.929688 158.195312 128.652344 L 106.070312 180.734375 L 75.75 180.734375 C 70.496094 180.734375 65.554688 182.773438 61.828125 186.496094 L 10.917969 237.40625 C 5.273438 243.046875 3.585938 251.472656 6.644531 258.882812 C 9.703125 266.25 16.84375 271.03125 24.84375 271.03125 L 192.472656 270.835938 L 211.964844 270.835938 L 211.964844 271.03125 L 261.226562 271.03125 L 261.226562 270.835938 L 278.40625 270.835938 C 279.230469 270.953125 280.054688 271.03125 280.917969 271.03125 L 349.867188 271.03125 C 357.828125 271.03125 364.96875 266.289062 368.066406 258.882812 C 371.125 251.433594 369.4375 243.007812 363.75 237.445312 Z M 363.828125 237.40625 " fill-opacity="1" fill-rule="nonzero"/></g><path fill="#a67233" d="M 172.15625 151.890625 L 126.660156 211.929688 L 156.195312 211.929688 L 146.347656 251.316406 L 187.375 251.316406 L 187.375 175.875 Z M 172.15625 151.890625 " fill-opacity="1" fill-rule="nonzero"/><path fill="#401801" d="M 354.535156 246.691406 L 310.214844 202.40625 C 309 201.152344 307.3125 200.488281 305.585938 200.488281 L 239.34375 200.488281 L 176.785156 137.980469 C 174.234375 135.433594 170.078125 135.433594 167.488281 137.980469 L 111.480469 193.941406 L 75.710938 193.941406 C 73.988281 193.941406 72.300781 194.648438 71.085938 195.863281 L 20.175781 246.730469 C 18.292969 248.613281 17.742188 251.433594 18.765625 253.902344 C 19.785156 256.332031 22.175781 257.941406 24.84375 257.941406 L 192.472656 257.746094 C 194.199219 257.746094 195.886719 257.039062 197.101562 255.824219 L 236.597656 216.359375 L 276.289062 256.019531 C 277.503906 257.273438 279.191406 257.941406 280.917969 257.941406 L 349.867188 257.941406 C 352.535156 257.941406 354.925781 256.332031 355.945312 253.902344 C 356.964844 251.433594 356.417969 248.613281 354.496094 246.773438 Z M 78.457031 207.03125 L 90.695312 207.03125 L 90.695312 233.25 L 118.894531 205.074219 L 172.15625 151.851562 L 159.488281 195.511719 L 182.589844 195.511719 L 171.960938 244.578125 L 40.726562 244.734375 Z M 78.457031 207.03125 " fill-opacity="1" fill-rule="nonzero"/><path fill="#a67233" d="M 294.09375 152.910156 C 294.09375 154.09375 294.035156 155.273438 293.921875 156.449219 C 293.804688 157.625 293.632812 158.792969 293.402344 159.953125 C 293.167969 161.113281 292.882812 162.257812 292.539062 163.386719 C 292.195312 164.519531 291.796875 165.632812 291.34375 166.722656 C 290.890625 167.816406 290.386719 168.882812 289.828125 169.925781 C 289.273438 170.96875 288.664062 171.980469 288.007812 172.964844 C 287.347656 173.945312 286.644531 174.894531 285.894531 175.808594 C 285.144531 176.722656 284.351562 177.597656 283.515625 178.433594 C 282.679688 179.269531 281.800781 180.0625 280.886719 180.8125 C 279.972656 181.5625 279.023438 182.265625 278.039062 182.921875 C 277.058594 183.578125 276.042969 184.1875 275 184.742188 C 273.957031 185.300781 272.886719 185.804688 271.796875 186.257812 C 270.703125 186.710938 269.589844 187.109375 268.457031 187.449219 C 267.324219 187.792969 266.179688 188.082031 265.019531 188.3125 C 263.859375 188.542969 262.691406 188.714844 261.511719 188.832031 C 260.335938 188.945312 259.15625 189.003906 257.972656 189.003906 C 256.789062 189.003906 255.609375 188.945312 254.429688 188.832031 C 253.253906 188.714844 252.085938 188.542969 250.925781 188.3125 C 249.765625 188.082031 248.617188 187.792969 247.484375 187.449219 C 246.355469 187.109375 245.242188 186.710938 244.148438 186.257812 C 243.054688 185.804688 241.988281 185.300781 240.945312 184.742188 C 239.902344 184.1875 238.886719 183.578125 237.902344 182.921875 C 236.917969 182.265625 235.972656 181.5625 235.054688 180.8125 C 234.140625 180.0625 233.265625 179.269531 232.429688 178.433594 C 231.59375 177.597656 230.800781 176.722656 230.050781 175.808594 C 229.296875 174.894531 228.59375 173.945312 227.9375 172.964844 C 227.28125 171.980469 226.671875 170.96875 226.113281 169.925781 C 225.558594 168.882812 225.050781 167.816406 224.597656 166.722656 C 224.148438 165.632812 223.75 164.519531 223.40625 163.386719 C 223.0625 162.257812 222.773438 161.113281 222.542969 159.953125 C 222.3125 158.792969 222.140625 157.625 222.023438 156.449219 C 221.90625 155.273438 221.851562 154.09375 221.851562 152.910156 C 221.851562 151.730469 221.90625 150.550781 222.023438 149.371094 C 222.140625 148.195312 222.3125 147.027344 222.542969 145.867188 C 222.773438 144.710938 223.0625 143.5625 223.40625 142.433594 C 223.75 141.300781 224.148438 140.191406 224.597656 139.097656 C 225.050781 138.007812 225.558594 136.9375 226.113281 135.894531 C 226.671875 134.851562 227.28125 133.839844 227.9375 132.859375 C 228.59375 131.875 229.296875 130.925781 230.050781 130.011719 C 230.800781 129.097656 231.59375 128.222656 232.429688 127.386719 C 233.265625 126.550781 234.140625 125.757812 235.054688 125.007812 C 235.972656 124.257812 236.917969 123.554688 237.902344 122.898438 C 238.886719 122.242188 239.902344 121.636719 240.945312 121.078125 C 241.988281 120.519531 243.054688 120.015625 244.148438 119.5625 C 245.242188 119.113281 246.355469 118.714844 247.484375 118.371094 C 248.617188 118.027344 249.765625 117.742188 250.925781 117.511719 C 252.085938 117.28125 253.253906 117.105469 254.429688 116.988281 C 255.609375 116.875 256.789062 116.816406 257.972656 116.816406 C 259.15625 116.816406 260.335938 116.875 261.511719 116.988281 C 262.691406 117.105469 263.859375 117.28125 265.019531 117.511719 C 266.179688 117.742188 267.324219 118.027344 268.457031 118.371094 C 269.589844 118.714844 270.703125 119.113281 271.796875 119.5625 C 272.886719 120.015625 273.957031 120.519531 275 121.078125 C 276.042969 121.636719 277.058594 122.242188 278.039062 122.898438 C 279.023438 123.554688 279.972656 124.257812 280.886719 125.007812 C 281.800781 125.757812 282.679688 126.550781 283.515625 127.386719 C 284.351562 128.222656 285.144531 129.097656 285.894531 130.011719 C 286.644531 130.925781 287.351562 131.875 288.007812 132.859375 C 288.664062 133.839844 289.273438 134.851562 289.828125 135.894531 C 290.386719 136.9375 290.890625 138.007812 291.34375 139.097656 C 291.796875 140.191406 292.195312 141.300781 292.539062 142.433594 C 292.882812 143.5625 293.167969 144.710938 293.402344 145.867188 C 293.632812 147.027344 293.804688 148.195312 293.921875 149.371094 C 294.035156 150.550781 294.09375 151.730469 294.09375 152.910156 Z M 294.09375 152.910156 " fill-opacity="1" fill-rule="nonzero"/><path fill="#401801" d="M 236.636719 234.898438 C 230.28125 234.898438 225.144531 240.03125 225.144531 246.378906 L 225.144531 257.863281 L 248.128906 257.863281 L 248.128906 246.378906 C 248.128906 240.03125 242.988281 234.898438 236.636719 234.898438 Z M 236.636719 234.898438 " fill-opacity="1" fill-rule="nonzero"/></svg>